<?xml version="1.0" encoding="UTF-8"?>
<svg width="500" height="500" viewBox="0 0 500 500" xmlns="http://www.w3.org/2000/svg">
  <defs>
    <linearGradient id="lightBlueGradient" x1="0%" y1="0%" x2="100%" y2="100%">
      <stop offset="0%" style="stop-color:#A8E0FF"/>
      <stop offset="50%" style="stop-color:#7AC7FF"/>
      <stop offset="100%" style="stop-color:#5AB0FF"/>
    </linearGradient>
    <filter id="shadow" x="-20%" y="-20%" width="140%" height="140%">
      <feGaussianBlur in="SourceAlpha" stdDeviation="3"/>
      <feOffset dx="2" dy="2" result="offsetblur"/>
      <feComponentTransfer>
        <feFuncA type="linear" slope="0.3"/>
      </feComponentTransfer>
      <feMerge>
        <feMergeNode/>
        <feMergeNode in="SourceGraphic"/>
      </feMerge>
    </filter>
  </defs>
  <g transform="translate(25, 25) scale(1.2)">
    <!-- Main iceberg shape with enhanced size -->
    <path d="
      M200,30
      l100,40
      l50,70
      l-25,90
      l-75,50
      l-90,25
      l-85,-35
      l-50,-80
      l25,-80
      l70,-50
      z
    " fill="url(#lightBlueGradient)" stroke="#ffffff" stroke-width="2" filter="url(#shadow)"/>
    
    <!-- Additional facets for enhanced depth -->
    <path d="
      M180,60
      l70,25
      l-25,70
      l-60,35
      l-45,-45
      z
    " fill="#8FD4FF" opacity="0.7"/>
    
    <path d="
      M250,85
      l45,45
      l-15,60
      l-55,25
      z
    " fill="#B8E7FF" opacity="0.5"/>
    
    <path d="
      M160,120
      l40,20
      l-20,40
      l-35,15
      z
    " fill="#C9EEFF" opacity="0.4"/>
    
    <!-- Highlight details -->
    <path d="
      M190,50
      l40,15
      l-10,30
      l-35,-10
      z
    " fill="#FFFFFF" opacity="0.3"/>
  </g>
</svg>