<?xml version="1.0" encoding="UTF-8" standalone="no"?>
<!DOCTYPE svg PUBLIC "-//W3C//DTD SVG 1.1//EN" "http://www.w3.org/Graphics/SVG/1.1/DTD/svg11.dtd">
<svg width="964px" height="937px" version="1.1" xmlns="http://www.w3.org/2000/svg" xmlns:xlink="http://www.w3.org/1999/xlink" xml:space="preserve" xmlns:serif="http://www.serif.com/" style="fill-rule:evenodd;clip-rule:evenodd;stroke-linejoin:round;stroke-miterlimit:2;">
    <g transform="matrix(1,0,0,1,-58.4546,-71.8686)">
        <g transform="matrix(0.285721,0,0,0.285721,58.4548,71.8255)">
            <path d="M219.893,711.268C360.708,515.799 598.518,226.851 798.966,226.851C999.414,226.851 1433.72,148.899 1556.21,93.22C1678.71,37.54 2369.14,-84.956 2614.14,93.22C2859.13,271.395 2970.49,683.428 3159.8,828.196C3349.11,972.965 3427.07,1462.95 3326.84,1741.35C3226.62,2019.75 3248.89,2532.01 3037.3,2732.46C2825.72,2932.9 2803.45,2955.18 2313.46,3077.67C1823.48,3200.17 1879.16,3311.53 1422.58,3266.98C966.006,3222.44 553.974,3111.08 331.253,2777C108.533,2442.92 -58.507,2119.97 19.444,1886.12C97.397,1652.26 -47.371,1307.05 63.988,1140C175.349,972.965 135.206,828.825 219.893,711.268Z" style="fill:rgb(223,236,239);fill-rule:nonzero;"/>
            <path d="M520.565,917.285C669.726,786.659 810.102,616.612 821.238,549.796C832.374,482.98 910.326,315.94 1211,327.076C1511.67,338.212 1567.35,293.668 1767.8,215.716C1968.25,137.764 2458.23,82.084 2547.32,215.716C2636.41,349.348 2636.41,560.932 2770.04,672.292C2903.67,783.652 3026.17,906.148 3048.44,1084.32C3070.71,1262.5 3070.71,1340.45 2970.49,1307.05C2870.26,1273.64 2770.04,1217.96 2658.68,1229.09C2547.32,1240.23 2591.86,1362.72 2380.28,1240.23C2168.7,1117.73 2035.06,1039.78 1890.3,1095.46C1745.53,1151.14 1656.44,1084.32 1422.58,1106.6C1188.73,1128.87 1199.86,1396.13 899.19,1407.27C598.518,1418.41 498.294,1351.59 453.75,1251.37C409.205,1151.14 431.299,995.459 520.565,917.285Z" style="fill:rgb(239,246,248);fill-rule:nonzero;"/>
            <path d="M1333.5,2632.23C1441.05,2718.28 1411.45,2454.05 1634.17,2465.19C1856.89,2476.33 1979.38,2586.84 2213.24,2464.77C2447.1,2342.69 2380.28,2142.25 2569.59,2064.29C2758.9,1986.34 3003.9,1819.3 3015.03,1752.49C3026.17,1685.67 3215.48,1535.8 3215.48,1638.58C3215.48,1741.35 3050.14,2075.43 3060.43,2186.79C3070.71,2298.15 3003.9,2699.05 2803.45,2710.18C2603,2721.32 2447.1,2854.95 2274.49,2910.63C2101.88,2966.31 1968.25,3088.81 1823.48,3077.67C1678.71,3066.54 1522.81,3101.37 1333.5,3078.38C1144.18,3055.4 988.278,2966.31 821.238,2921.77C654.198,2877.22 498.294,2699.05 476.022,2543.14C453.75,2387.24 208.757,2298.15 208.757,2175.65L208.757,1752.49C208.757,1641.13 97.397,1485.22 208.757,1462.95C320.117,1440.68 375.797,1663.4 487.157,1707.94C598.518,1752.49 654.198,1952.93 654.198,2086.57C654.198,2220.2 832.374,2309.29 876.918,2465.19C921.462,2621.1 1222.13,2543.14 1333.5,2632.23Z" style="fill:rgb(205,223,225);fill-rule:nonzero;"/>
        </g>
    </g>
</svg>
