<svg width="512" height="512" viewBox="0 0 512 512" fill="none" xmlns="http://www.w3.org/2000/svg">
  <defs>
    <linearGradient id="mainGradient" x1="0%" y1="0%" x2="100%" y2="100%">
      <stop offset="0%" style="stop-color:#d9dbf1"/>
      <stop offset="50%" style="stop-color:#8e9dcc"/>
      <stop offset="100%" style="stop-color:#d9dbf1"/>
    </linearGradient>
    <filter id="blur" x="-50%" y="-50%" width="200%" height="200%">
      <feGaussianBlur in="SourceGraphic" stdDeviation="8" />
    </filter>
    <filter id="softBlur" x="-50%" y="-50%" width="200%" height="200%">
      <feGaussianBlur in="SourceGraphic" stdDeviation="12" />
    </filter>
  </defs>
  
  <!-- Base shape with softer corners and rounded bottom -->
  <path d="M256 56
           C256 56, 136 136, 136 136
           C136 136, 96 276, 96 276
           C96 276, 176 426, 176 426
           Q256 456, 336 426
           C336 426, 416 276, 416 276
           C416 276, 376 136, 376 136
           C376 136, 256 56, 256 56
           Z" 
        fill="#313638" filter="url(#blur)" opacity="0.15"/>
  
  <path d="M256 76
           Q196 106, 146 156
           Q106 206, 106 276
           Q106 346, 176 406
           Q256 446, 336 406
           Q406 346, 406 276
           Q406 206, 366 156
           Q316 106, 256 76
           Z" 
        fill="url(#mainGradient)"/>
  
  <!-- Inner layers with more organic shapes -->
  <path d="M256 116
           Q206 146, 166 186
           Q136 236, 136 276
           Q146 346, 196 386
           Q256 416, 316 386
           Q366 346, 376 276
           Q376 236, 346 186
           Q306 146, 256 116
           Z" 
        fill="#d9dbf1" opacity="0.5" filter="url(#softBlur)"/>
  
  <!-- Ethereal highlight spots -->
  <ellipse cx="220" cy="220" rx="55" ry="50" fill="#f9f9ed" opacity="0.6" filter="url(#softBlur)"/>
  <ellipse cx="290" cy="290" rx="40" ry="35" fill="#f9f9ed" opacity="0.4" filter="url(#softBlur)"/>
  
  <!-- Subtle frost effect -->
  <path d="M256 76
           Q196 106, 146 156
           Q106 206, 106 276
           Q106 346, 176 406
           Q256 446, 336 406
           Q406 346, 406 276
           Q406 206, 366 156
           Q316 106, 256 76
           Z" 
        fill="none" stroke="#f9f9ed" stroke-width="1" opacity="0.15"/>
</svg>